<?xml version="1.0" standalone="no"?>
<!DOCTYPE svg PUBLIC "-//W3C//DTD SVG 20010904//EN"
 "http://www.w3.org/TR/2001/REC-SVG-20010904/DTD/svg10.dtd">
<svg version="1.0" xmlns="http://www.w3.org/2000/svg"
 width="500.000000pt" height="500.000000pt" viewBox="0 0 500.000000 500.000000"
 preserveAspectRatio="xMidYMid meet">
<metadata>
Created by potrace 1.14, written by Peter Selinger 2001-2017
</metadata>
<g transform="translate(0.000000,500.000000) scale(0.100000,-0.100000)"
fill="#000000" stroke="none">
<path d="M1383 4902 c-6 -4 -114 -7 -240 -6 -135 1 -233 -3 -240 -9 -7 -5 -13
-6 -13 -1 0 5 -7 0 -15 -10 -8 -11 -15 -16 -15 -12 0 5 -19 -8 -42 -28 -48
-41 -51 -43 -93 -70 -16 -11 -34 -25 -38 -33 -5 -7 -12 -11 -18 -8 -5 4 -12
-1 -15 -9 -3 -9 -12 -16 -20 -16 -7 0 -19 -8 -26 -18 -7 -11 -23 -24 -36 -31
-12 -7 -20 -17 -16 -23 4 -7 3 -8 -4 -4 -7 4 -29 -6 -49 -23 -77 -63 -121 -96
-143 -111 -25 -17 -75 -56 -104 -82 -11 -10 -28 -20 -38 -24 -10 -3 -16 -9
-13 -14 3 -4 -1 -10 -9 -13 -15 -6 -11 -47 5 -47 5 0 9 -6 9 -14 0 -8 10 -22
22 -30 12 -9 19 -16 14 -16 -4 0 4 -15 18 -32 37 -46 39 -50 55 -80 8 -16 18
-28 23 -28 4 0 8 -7 8 -15 0 -8 5 -15 10 -15 6 0 10 -6 10 -14 0 -7 8 -24 19
-37 10 -13 33 -53 52 -89 19 -36 38 -68 42 -71 5 -3 9 -10 9 -15 2 -19 31 -79
42 -86 7 -5 6 -8 -4 -8 -13 0 -13 -1 0 -10 8 -5 11 -10 6 -10 -5 0 -4 -6 2
-12 5 -7 12 -24 14 -38 1 -14 6 -27 10 -30 4 -3 9 -21 11 -41 2 -19 7 -40 11
-47 4 -7 5 -12 2 -12 -2 0 -1 -13 4 -30 5 -18 5 -32 -1 -36 -5 -3 -6 -10 -2
-17 11 -18 -3 -177 -17 -194 -2 -2 -3 -6 -4 -10 -11 -49 -67 -171 -98 -215
-11 -16 -16 -28 -11 -28 4 0 3 -4 -2 -8 -14 -10 -65 -89 -65 -101 0 -6 -8 -15
-17 -20 -10 -6 -14 -11 -9 -11 5 0 4 -6 -2 -12 -5 -7 -25 -40 -43 -73 -18 -33
-37 -63 -43 -67 -6 -4 -8 -8 -4 -8 4 0 -12 -38 -36 -85 -24 -46 -38 -81 -32
-78 7 5 7 2 0 -8 -16 -19 -54 -150 -48 -161 3 -4 1 -8 -4 -8 -5 0 -10 -15 -10
-32 0 -18 -3 -44 -6 -57 -3 -14 0 -31 7 -40 10 -12 9 -13 -1 -7 -16 10 -15
-185 2 -196 8 -5 7 -8 -1 -8 -7 0 -13 -9 -13 -21 0 -12 4 -17 11 -13 7 4 7 -1
-1 -16 -7 -12 -8 -25 -4 -29 5 -3 10 -22 10 -41 2 -55 8 -90 15 -90 3 0 6 -6
6 -12 1 -23 13 -76 22 -100 5 -13 10 -27 11 -33 1 -5 6 -20 11 -33 5 -13 9
-26 9 -29 0 -29 162 -305 204 -349 6 -6 31 -34 56 -63 25 -28 51 -51 57 -51 7
0 13 -7 13 -16 0 -8 4 -12 10 -9 6 3 10 -1 10 -10 0 -9 4 -14 9 -11 5 4 11 3
13 -1 9 -20 81 -73 91 -67 7 4 9 4 5 -1 -8 -8 33 -45 51 -45 6 0 11 -4 11 -8
0 -8 51 -36 59 -32 2 1 7 -3 10 -8 9 -15 172 -95 281 -138 52 -20 98 -41 101
-46 4 -6 9 -5 14 2 4 7 10 8 14 3 7 -11 123 -54 116 -43 -2 4 12 -1 33 -11 21
-11 50 -20 65 -21 15 -1 27 -5 27 -8 0 -5 30 -11 72 -13 9 -1 14 -5 12 -9 -3
-4 4 -9 15 -9 20 -1 32 -4 49 -9 4 -1 11 -2 16 -1 4 1 14 -3 22 -10 8 -6 21
-9 29 -5 8 3 15 1 15 -5 0 -6 5 -7 10 -4 5 3 10 1 10 -6 0 -10 3 -10 11 -2 8
8 20 7 42 -5 68 -33 69 -34 62 -23 -9 16 1 13 19 -5 10 -10 16 -11 16 -3 0 9
4 8 15 -1 8 -7 15 -9 15 -5 0 4 7 2 15 -5 8 -7 15 -10 15 -6 0 3 16 0 35 -8
19 -8 35 -13 35 -10 0 2 16 -3 37 -11 20 -8 38 -13 41 -10 3 3 12 -1 20 -7 12
-11 68 -34 97 -41 5 -1 18 -10 29 -19 11 -10 28 -18 38 -18 11 0 16 -4 13 -10
-3 -5 -1 -10 5 -10 14 0 63 -54 81 -88 8 -15 16 -29 19 -32 10 -10 41 -65 47
-82 3 -10 9 -18 13 -18 4 0 10 -10 14 -23 6 -24 39 -68 51 -68 13 0 46 62 39
73 -5 7 -2 8 6 3 10 -6 12 -4 7 8 -3 9 -1 19 5 23 7 5 8 2 3 -6 -5 -9 -4 -11
3 -6 7 4 12 16 12 27 0 11 4 18 8 15 5 -3 15 10 22 29 8 19 17 35 21 35 3 0
12 12 18 28 14 33 56 82 70 82 6 0 14 7 19 16 5 9 11 15 13 14 6 -3 84 34 87
42 2 4 10 4 18 1 8 -3 14 -1 14 4 0 9 6 11 50 15 11 1 20 5 20 9 0 7 68 24 83
21 4 -1 7 3 7 8 0 6 14 10 31 10 16 0 28 4 25 9 -4 5 3 7 14 4 12 -3 20 0 20
7 0 10 3 10 15 0 8 -7 15 -8 15 -3 0 5 6 10 13 11 14 1 51 10 55 12 1 2 7 4
12 5 6 1 11 3 13 5 3 2 40 11 55 12 6 1 12 5 12 10 0 4 10 6 23 4 12 -2 30 3
40 12 13 12 17 12 17 2 0 -11 3 -11 12 -2 7 7 22 12 34 12 13 0 26 5 29 11 4
6 13 8 21 5 8 -3 14 -1 14 4 0 5 7 6 17 3 12 -5 14 -3 8 8 -8 12 -6 12 8 0 9
-7 17 -9 17 -4 0 11 70 34 82 27 4 -3 8 0 8 5 0 6 3 10 8 10 15 -3 72 14 68
20 -2 3 10 7 26 8 17 1 36 7 43 13 6 5 15 7 18 3 4 -3 7 0 7 7 0 7 3 11 6 7 3
-3 25 3 49 13 24 10 46 16 49 13 3 -4 6 -1 6 6 0 7 5 9 10 6 6 -3 10 -1 10 5
0 6 5 8 10 5 6 -3 10 -2 10 4 0 6 6 8 14 5 7 -3 21 2 29 11 9 9 18 15 19 14 8
-5 48 13 48 22 0 5 6 9 13 9 21 0 77 30 77 41 0 6 4 8 9 4 5 -3 16 2 25 10 8
9 19 16 23 15 4 0 16 7 26 15 9 8 22 15 27 15 6 0 13 7 16 15 4 8 11 15 18 15
6 0 26 13 44 28 17 15 48 41 68 57 45 37 142 135 169 170 11 15 25 32 30 38 6
7 25 36 44 64 18 29 37 53 42 53 4 0 6 7 3 15 -4 8 -2 15 4 15 6 0 16 16 22
35 6 19 16 35 22 35 6 0 8 3 5 6 -4 4 0 19 8 33 26 47 83 241 90 306 1 11 4
20 5 20 1 0 3 16 4 36 1 20 8 45 16 55 8 10 10 15 3 11 -8 -5 -10 10 -6 55 2
35 6 65 9 67 2 2 -1 10 -7 18 -9 9 -8 13 0 13 9 0 9 5 0 21 -8 16 -8 20 1 14
9 -6 9 -2 1 14 -9 16 -9 21 1 21 8 0 9 3 3 8 -6 4 -10 18 -10 32 1 14 -3 30
-7 37 -5 6 -4 14 2 18 8 5 6 11 -6 19 -11 9 -13 15 -6 20 7 4 8 14 2 29 -14
37 -23 61 -25 72 -1 6 -3 13 -5 18 -1 4 -3 10 -5 15 -13 46 -59 142 -68 142
-6 0 -7 3 -4 7 4 3 1 13 -6 21 -10 13 -9 14 1 8 7 -4 1 9 -13 30 -14 20 -25
43 -25 51 0 8 -4 11 -10 8 -5 -3 -10 3 -10 14 0 11 -5 23 -11 26 -5 4 -14 17
-20 28 -10 24 -31 59 -39 67 -3 3 -17 26 -30 53 -14 26 -28 47 -32 47 -5 0 -8
7 -8 15 0 8 -5 15 -11 15 -5 0 -8 4 -4 9 3 5 1 12 -5 16 -6 4 -8 11 -5 16 4 5
-1 9 -9 9 -10 0 -13 6 -10 15 4 8 1 15 -5 15 -6 0 -11 9 -11 20 0 11 -4 20 -9
20 -8 0 -22 37 -19 50 1 3 -5 16 -12 30 -8 14 -16 38 -18 55 -2 16 -7 36 -11
45 -13 24 -2 290 11 290 4 0 5 7 2 15 -4 8 -1 15 5 15 6 0 10 3 10 8 -3 16 14
72 22 72 5 0 8 3 8 8 -1 4 0 10 1 15 1 4 3 10 4 15 7 29 19 52 27 52 5 0 8 3
8 8 -4 24 2 42 13 36 7 -5 9 -2 5 9 -3 8 1 21 8 27 8 7 12 16 9 21 -3 5 0 9 5
9 6 0 11 6 11 13 0 8 9 24 20 37 11 12 17 27 14 31 -3 5 0 9 6 9 6 0 14 8 17
18 14 37 80 132 87 125 4 -4 4 0 0 10 -3 10 -1 17 6 17 6 0 9 4 6 9 -3 5 1 12
10 15 9 4 14 13 10 22 -3 8 -2 12 4 9 6 -3 10 1 10 9 0 9 5 15 12 13 7 -1 12
3 13 9 0 6 7 18 17 27 18 19 13 57 -8 57 -8 0 -14 5 -14 10 0 6 -6 10 -13 10
-7 0 -19 9 -27 20 -8 11 -20 20 -27 20 -7 0 -13 4 -13 8 0 4 -15 16 -32 27
-18 10 -43 29 -55 42 -12 13 -25 23 -28 23 -3 0 -20 13 -38 30 -18 16 -38 30
-45 30 -7 0 -15 6 -18 13 -2 7 -29 31 -59 53 -30 21 -55 42 -55 47 0 4 -7 7
-15 7 -8 0 -15 4 -15 10 0 5 -12 16 -27 24 -16 8 -38 24 -50 36 -13 11 -23 18
-23 14 0 -4 -8 2 -17 12 -27 30 -79 64 -87 57 -3 -3 -6 1 -6 10 0 9 -3 16 -7
16 -5 -1 -10 0 -13 1 -3 2 -77 5 -165 6 -180 4 -161 4 -275 1 -47 -1 -93 1
-102 6 -10 4 -18 4 -18 0 0 -4 -58 -8 -130 -8 -71 0 -130 4 -130 8 0 5 -5 5
-12 1 -18 -11 -1627 -11 -1621 0 4 5 0 6 -8 0 -23 -14 -52 -15 -61 -2 -4 7 -8
8 -8 3 0 -11 -159 -13 -176 -3 -5 4 -15 4 -21 0z"/>
</g>
</svg>
